# xmcd CD database file
#
# Track frame offsets:
#	150
#	18972
#	51244
#	72915
#	97787
#	118414
#	144473
#	158052
#	180544
#	198867
#
# Disc length: 2891 seconds
#
# Revision: 3
# Processed by: cddbd v1.5.2PL0 Copyright (c) Steve Scherf et al.
# Submitted via: CDex 1.51
#
DISCID=810b490a
DTITLE=Rod Price - Open
DYEAR=2000
DGENRE=Blues
TTITLE0=One More Time
TTITLE1=Bluebird Blues
TTITLE2=Walking Blues
TTITLE3=Sitting On Top Of The World
TTITLE4=Key To The Highway
TTITLE5=Long Distance Call
TTITLE6=The Stumble
TTITLE7=Got Love If You Want It
TTITLE8=Elevator Woman
TTITLE9=Dynaflite
EXTD=YEAR: 2000
EXTT0=
EXTT1=
EXTT2=
EXTT3=
EXTT4=
EXTT5=
EXTT6=
EXTT7=
EXTT8=
EXTT9=
PLAYORDER=
